<?xml version="1.0" standalone="no"?>
<svg viewBox="0 0 200 200" width="500" height="500" xmlns="http://www.w3.org/2000/svg">
    <path fill="#6583fe"
          d="M37.5,-61.1C51.8,-56.6,68.8,-53.1,78.9,-43.1C88.9,-33,92,-16.5,86.8,-3C81.7,10.6,68.3,21.2,58.9,32.2C49.4,43.3,43.9,54.9,34.8,64.4C25.6,73.8,12.8,81.1,-0.9,82.7C-14.6,84.2,-29.1,79.9,-38.3,70.5C-47.6,61.1,-51.5,46.5,-60,33.9C-68.5,21.3,-81.6,10.7,-86.1,-2.6C-90.5,-15.8,-86.3,-31.6,-75,-39.3C-63.6,-47,-45.1,-46.6,-31.5,-51.4C-17.8,-56.2,-8.9,-66.1,1.3,-68.5C11.6,-70.8,23.2,-65.5,37.5,-61.1Z"
          transform="translate(100 100)"/>
</svg>
